<?xml version="1.0" encoding="UTF-8"?>
<svg width="20px" height="20px" viewBox="0 0 20 20" version="1.1" xmlns="http://www.w3.org/2000/svg" xmlns:xlink="http://www.w3.org/1999/xlink">
    <!-- Generator: Sketch 50.2 (55047) - http://www.bohemiancoding.com/sketch -->
    <title>Icon</title>
    <desc>Created with Sketch.</desc>
    <defs>
        <linearGradient x1="93.0419922%" y1="92.5634766%" x2="1.87184824%" y2="1.86222132%" id="linearGradient-1">
            <stop stop-color="#F79A1F" offset="0%"></stop>
            <stop stop-color="#E3444E" offset="49.5167991%"></stop>
            <stop stop-color="#E41E1E" offset="100%"></stop>
        </linearGradient>
    </defs>
    <g id="Symbols" stroke="none" stroke-width="1" fill="none" fill-rule="evenodd">
        <g id="Extensions-/-Notifications-/-With-Subtitle" transform="translate(-8.000000, -8.000000)">
            <g id="Notification">
                <g id="Topline">
                    <g id="Graphics-/-App-Icons-/-MNL2" transform="translate(8.000000, 8.000000)">
                        <g id="Mail-Icon" stroke-width="1" fill="url(#linearGradient-1)">
                            <path d="M13.0271667,0 C15.035,0 16.0386667,0 17.1195,0.341666667 C18.2995,0.771166667 19.2288333,1.7005 19.6583333,2.8805 C20,3.96116667 20,4.96516667 20,6.97283333 L20,13.0271667 C20,15.035 20,16.0386667 19.6583333,17.1195 C19.2288333,18.2995 18.2995,19.2288333 17.1195,19.6581667 C16.0386667,20 15.035,20 13.0271667,20 L6.97283333,20 C4.965,20 3.96116667,20 2.8805,19.6581667 C1.7005,19.2288333 0.771166667,18.2995 0.341666667,17.1195 C0,16.0386667 0,15.035 0,13.0271667 L0,6.97283333 C0,4.96516667 0,3.96116667 0.341666667,2.8805 C0.771166667,1.7005 1.7005,0.771166667 2.8805,0.341666667 C3.96116667,0 4.965,0 6.97283333,0 L13.0271667,0 Z" id="Background"></path>
                        </g>
                        <polygon id="Fill-1" fill="#FFFFFF" points="3.90388724 2.97767059 4.35252532 13.3939123 12.315284 11.0013822 3.90388724 2.97560789"></polygon>
                        <polygon id="Fill-8" fill="#FFFFFF" points="14.9020487 16.4311302 16.3625461 16.5479824 15.6209009 14.3080923"></polygon>
                        <polygon id="Fill-5" fill="#FFFFFF" points="10.951187 16.9919588 15.2443956 15.3492215 11.9186982 11.4064663"></polygon>
                        <g id="Group-13" stroke-width="1" transform="translate(4.832104, 8.225468)" fill="#EE465A">
                            <path d="M2.90717476,2.2983471 C2.82765753,2.54710918 2.42687417,2.51781879 2.23442391,2.45614394 C2.04217991,2.39467537 1.69873973,2.18541407 1.77846323,1.93675512 C1.8580836,1.68809618 2.25917635,1.71738657 2.45142035,1.77895828 C2.56775685,1.81619008 2.67738955,1.87466774 2.76794225,1.95624767 L3.07136598,1.00905408 L1.58281577,0.99317126 L1.18223869,2.24368545 C1.10261832,2.49234439 0.701628703,2.463054 0.509590978,2.40148229 C0.317243847,2.33980745 -0.0260932033,2.13075241 0.053527164,1.88199033 C0.133147531,1.63333139 0.534137153,1.66262178 0.726381149,1.72429663 C0.842820779,1.7614253 0.952453487,1.82000609 1.04310932,1.90127662 L1.58951956,0.195936235 C1.61313752,0.121782033 1.68347572,0.0724834121 1.76123965,0.0720708713 L3.37334582,0.0907383409 C3.3908788,0.0905320705 3.40748357,0.0938323966 3.42501655,0.0995048321 C3.51856017,0.129414037 3.56992149,0.229455172 3.54001229,0.322998791 L2.90717476,2.2983471 Z" id="Fill-11"></path>
                        </g>
                    </g>
                </g>
            </g>
        </g>
    </g>
</svg>